<?xml version='1.0' encoding='iso-8859-1'?>
<!DOCTYPE svg PUBLIC '-//W3C//DTD SVG 1.1//EN' 'http://www.w3.org/Graphics/SVG/1.1/DTD/svg11.dtd'>
<svg version="1.1" xmlns="http://www.w3.org/2000/svg" viewBox="0 0 512 512" xmlns:xlink="http://www.w3.org/1999/xlink" enable-background="new 0 0 512 512">
  <path d="M368,64h-32V32c0-17.672-14.328-32-32-32s-32,14.328-32,32v31.5l-94.742-30.719c-6.617-2.18-13.875,0.219-17.938,5.891  C138.828,67.211,128,100.977,128,136.32c0,35.344,10.828,69.109,31.32,97.648c3.07,4.273,7.945,6.672,13,6.672  c1.648,0,3.313-0.25,4.938-0.781L272,209.141V480c0,17.672,14.328,32,32,32s32-14.328,32-32V208h32c8.836,0,16-6.844,16-15.68v-112  C384,71.484,376.836,64,368,64z"/>
</svg>
