<?xml version='1.0' encoding='iso-8859-1'?>
<!DOCTYPE svg PUBLIC '-//W3C//DTD SVG 1.1//EN' 'http://www.w3.org/Graphics/SVG/1.1/DTD/svg11.dtd'>
<svg version="1.1" xmlns="http://www.w3.org/2000/svg" viewBox="0 0 512 512" xmlns:xlink="http://www.w3.org/1999/xlink" enable-background="new 0 0 512 512">
  <path d="m464,64h-96v-32c0-17.674-14.327-32-32-32h-160c-17.674,0-32,14.326-32,32v32h-96c-17.672,0-32,14.328-32,32s14.328,32 32,32h96v96c0,17.673 14.326,32 32,32h16v32c0,8.836 7.163,16 16,16h16v144c0,1.719 0.273,3.43 0.82,5.063l16,48c2.18,6.531 8.289,10.937 15.18,10.937s13-4.406 15.18-10.938l16-48c0.547-1.633 0.82-3.344 0.82-5.063v-143.999h16c8.836,0 16-7.164 16-16v-32h16c17.673,0 32-14.327 32-32v-96h96c17.672,0 32-14.328 32-32s-14.328-32-32-32zm-160,144h-96v-32h96v32zm0-64h-96v-32h96v32zm0-64h-96v-32h96v32z"/>
</svg>
