<?xml version='1.0' encoding='iso-8859-1'?>
<!DOCTYPE svg PUBLIC '-//W3C//DTD SVG 1.1//EN' 'http://www.w3.org/Graphics/SVG/1.1/DTD/svg11.dtd'>
<svg version="1.1" xmlns="http://www.w3.org/2000/svg" viewBox="0 0 512 512" xmlns:xlink="http://www.w3.org/1999/xlink" enable-background="new 0 0 512 512">
  <path d="m336,240h-48v-176h32c17.672,0 32-14.328 32-32s-14.328-32-32-32h-128c-17.672,0-32,14.328-32,32s14.328,32 32,32h32v176h32v80c-17.673,0-32-14.327-32-32v-48h-48c-17.672,0-32,14.328-32,32v160c0,11.242 5.898,21.656 15.539,27.438l80,48c5.063,3.039 10.766,4.562 16.461,4.562 5.695,0 11.398-1.523 16.461-4.563l80-48c9.641-5.781 15.539-16.195 15.539-27.437v-160c0-17.672-14.328-32-32-32z"/>
</svg>
